<svg width="95" height="40" viewBox="0 0 95 40" fill="none" xmlns="http://www.w3.org/2000/svg">
<path d="M90.1273 38.8115L76.0524 0.0255939L76.0427 0H75.7649L72.8665 7.9704L67.59 22.4806L67.5776 22.4691C65.7488 20.854 63.1687 19.8444 59.9194 19.4684L58.9283 19.366L59.9114 19.2398C65.27 18.2761 68.8721 14.8888 68.8721 10.8078C68.8721 5.21153 63.6131 1.30531 56.0801 1.30531H40.4065V1.58862H44.9609V30.5057L33.8999 0.0255939L33.8902 0H33.6125L30.7141 7.9704L19.5349 38.7118L19.4661 38.7197C19.275 38.7433 19.0861 38.7621 18.8991 38.7762C18.6178 38.7982 18.3383 38.8115 18.0579 38.8115H6.76235L28.2336 1.58861L28.3932 1.30884H2.13302V12.8236H2.41166C2.46104 7.21493 5.7245 1.58861 12.9348 1.58861H21.6335L0 39.0904H29.1445V28.0584H28.8658C28.8279 32.9469 26.0592 37.59 20.0384 38.6385L19.847 38.6712L24.4323 26.0567H37.2771L41.9056 38.8115H37.3397V39.0904H55.2601V38.8115H50.6748V19.5717H55.9655C61.3496 19.5717 64.4376 21.9793 64.4376 26.175V29.5878C64.4376 29.9638 64.4632 30.5136 64.4914 30.9735V30.9902L61.6477 38.8097H57.9327V39.0886H65.6227V38.8097H61.9475L64.5373 31.6892C64.5425 31.7581 64.5452 31.7995 64.5452 31.7995L64.6166 32.4412L64.6854 32.8657C65.1175 35.4913 66.1209 37.4215 67.6667 38.6023L67.8889 38.7638C69.0634 39.5811 70.5228 39.995 72.229 39.995C74.489 39.995 75.9959 39.431 77.2401 38.1037L77.077 37.9501C75.9307 39.0092 74.9687 39.4381 73.7633 39.4381C71.7096 39.4381 70.6347 36.9449 70.6347 34.4861V29.7043C70.6457 28.5178 70.4601 27.3378 70.0854 26.212L70.0342 26.0638V26.0585H79.4296L84.058 38.8133H79.4922V39.0921H95V38.8133L90.1273 38.8115ZM24.5346 25.7778L30.8622 8.37815L37.1757 25.7778H24.5346ZM50.6775 19.2919V1.58861H54.716C60.1107 1.58861 62.9589 4.79848 62.9589 10.8679C62.9589 17.3229 61.3241 19.2919 55.9655 19.2919H50.6775ZM69.9249 25.7778L69.8976 25.709C69.4801 24.6912 68.8722 23.7626 68.1067 22.9731L67.8422 22.7083L67.8139 22.6818L73.0111 8.37815L79.3247 25.7778H69.9249Z" fill="black"/>
</svg>
